# xmcd
#
# Track frame offsets: 
#        150
#        21477
#        33780
#        52737
#        68647
#        81615
#        97730
#        115770
#        139917
#        156322
#        173116
#
# Disc length: 2498 seconds
#
# Revision: 4
# Processed by: cddbd v1.5.2PL0 Copyright (c) Steve Scherf et al.
# Submitted via: ExactAudioCopy v1.0b3
#
DISCID=8809c00b
DTITLE=The Sheila Divine - Where Have My Countrymen Gone
DYEAR=2001
DGENRE=Alternative
TTITLE0=Countrymen
TTITLE1=Ostrich
TTITLE2=Wanting Is Wasted
TTITLE3=Antidote
TTITLE4=Sideways
TTITLE5=Every Year
TTITLE6=Walking Dead (Who Speak)
TTITLE7=Spirits
TTITLE8=Monarchs
TTITLE9=Some Kind of Home
TTITLE10=Vanishing Act
EXTD=\n
EXTT0=
EXTT1=
EXTT2=
EXTT3=
EXTT4=
EXTT5=
EXTT6=
EXTT7=
EXTT8=
EXTT9=
EXTT10=
PLAYORDER=
